<svg xmlns="http://www.w3.org/2000/svg" width="430" height="430" style="width:100%;height:100%;transform:translate3d(0,0,0);content-visibility:visible" viewBox="0 0 430 430"><defs><path id="b" style="display:none"/><path id="d" style="display:none"/><path id="f" style="display:none"/><path id="h" fill-opacity="0" stroke-linecap="round" stroke-linejoin="round" class="secondary" style="display:none"/><path id="j" fill="#EBE6EF" d="M0 30c13.807 0 25-13.431 25-30S13.807-30 0-30-25-16.569-25 0s11.193 30 25 30" style="display:block" transform="translate(165 230)"/><path id="n" fill="#514BFD" d="M-56.648-142.509c-25.747 3.086-49.437 10.892-69.495 22.22-20.229 24.718-37.722 59.3-48.459 99.369-5.795 21.626-9.085 42.852-10.076 62.765-.999 20.093.343 38.849 3.817 55.333 20.291 19.248 49.017 34.553 82.785 43.744q3.04.827 6.131 1.587c7.545-12.845 100.979 12.019 121.627 4.519 6.147 14.432 55.129-16.665 62.263-4.519q3.807-.937 7.534-1.974c33.161-9.23 61.373-24.376 81.382-43.357 6.918-32.821 5.382-74.652-6.259-118.098-10.737-40.069-28.23-74.651-48.459-99.369-20.058-11.328-43.748-19.134-69.495-22.22-3.466 5.762-109.571 6.192-113.296 0" style="display:block" transform="translate(265 214.657)"/><path id="p" fill="#514BFD" d="M-56.648-142.509c-25.747 3.086-49.437 10.892-69.495 22.22-20.229 24.718-37.722 59.3-48.459 99.369-5.795 21.626-9.085 42.852-10.076 62.765-.999 20.093.343 38.849 3.817 55.333 20.291 19.248 49.017 34.553 82.785 43.744q3.04.827 6.131 1.587c7.545-12.845 100.979 12.019 121.627 4.519 6.147 14.432 55.129-16.665 62.263-4.519q3.807-.937 7.534-1.974c33.161-9.23 61.373-24.376 81.382-43.357 6.918-32.821 5.382-74.652-6.259-118.098-10.737-40.069-28.23-74.651-48.459-99.369-20.058-11.328-43.748-19.134-69.495-22.22-3.466 5.762-109.571 6.192-113.296 0" style="display:block" transform="translate(265 214.657)"/><path id="r" fill="#514BFD" d="M-56.648-142.509c-25.747 3.086-49.437 10.892-69.495 22.22-20.229 24.718-37.722 59.3-48.459 99.369-5.795 21.626-9.085 42.852-10.076 62.765-.999 20.093.343 38.849 3.817 55.333 20.291 19.248 49.017 34.553 82.785 43.744q3.04.827 6.131 1.587c7.545-12.845 100.979 12.019 121.627 4.519 6.147 14.432 55.129-16.665 62.263-4.519q3.807-.937 7.534-1.974c33.161-9.23 61.373-24.376 81.382-43.357 6.918-32.821 5.382-74.652-6.259-118.098-10.737-40.069-28.23-74.651-48.459-99.369-20.058-11.328-43.748-19.134-69.495-22.22-3.466 5.762-109.571 6.192-113.296 0" style="display:block" transform="translate(265 214.657)"/><path id="t" fill="#4BB3FD" d="M-56.648-142.509c-25.747 3.086-49.437 10.892-69.495 22.22-20.229 24.718-37.722 59.3-48.459 99.369-5.795 21.626-9.085 42.852-10.076 62.765-.999 20.093.343 38.849 3.817 55.333 20.291 19.248 49.017 34.553 82.785 43.744q3.04.827 6.131 1.587c7.545-12.845 100.979 12.019 121.627 4.519 6.147 14.432 55.129-16.665 62.263-4.519q3.807-.937 7.534-1.974c33.161-9.23 61.373-24.376 81.382-43.357 6.918-32.821 5.382-74.652-6.259-118.098-10.737-40.069-28.23-74.651-48.459-99.369-20.058-11.328-43.748-19.134-69.495-22.22-3.466 5.762-109.571 6.192-113.296 0" style="display:block" transform="translate(265 214.657)"/><path id="v" fill-opacity="0" stroke="#EBE6EE" stroke-linecap="round" stroke-linejoin="round" stroke-width="7" d="M-93.825-11.704C-67.552 3.011-35.108 11.704 0 11.704s67.552-8.693 93.825-23.408" class="secondary" style="display:block" transform="translate(218.776 317.178)"/><path id="x" style="display:none"/><path id="D" fill-opacity="0" stroke-linecap="round" stroke-linejoin="round" class="secondary" style="display:none"/><path id="K" class="primary" style="display:none"/><path id="H" style="display:none"/><path id="J" fill-opacity="0" stroke-linecap="round" stroke-linejoin="round" class="primary" style="display:none"/><path id="S" class="primary" style="display:none"/><path id="O" style="display:none"/><path id="Q" fill-opacity="0" stroke-linecap="round" stroke-linejoin="round" class="primary" style="display:none"/><path id="aa" class="quaternary" style="display:none"/><path id="W" style="display:none"/><path id="Y" fill-opacity="0" stroke-linecap="round" stroke-linejoin="round" class="primary" style="display:none"/><path id="ah" class="quaternary" style="display:none"/><path id="ae" style="display:none"/><path id="ag" fill-opacity="0" stroke-linecap="round" stroke-linejoin="round" class="primary" style="display:none"/><path id="l" fill="#EBE6EF" d="M305 260c13.807 0 25-13.431 25-30s-11.193-30-25-30-25 13.431-25 30 11.193 30 25 30" style="display:block"/><path id="z" style="display:none"/><path id="B" style="display:none"/><path id="F" style="display:none"/><path id="M" style="display:none"/><path id="U" style="display:none"/><path id="ac" style="display:none"/><mask id="aX" mask-type="alpha"><g filter="url(#a)"><path fill="#fff" d="M0 0h430v430H0z" opacity="0"/><use xmlns:ns1="http://www.w3.org/1999/xlink" ns1:href="#b"/></g></mask><mask id="aW" mask-type="alpha"><g filter="url(#c)"><path fill="#fff" d="M0 0h430v430H0z" opacity="0"/><use xmlns:ns2="http://www.w3.org/1999/xlink" ns2:href="#d"/></g></mask><mask id="aV" mask-type="alpha"><g filter="url(#e)"><path fill="#fff" d="M0 0h430v430H0z" opacity="0"/><use xmlns:ns3="http://www.w3.org/1999/xlink" ns3:href="#f"/></g></mask><mask id="aU" mask-type="alpha"><g filter="url(#g)"><path fill="#fff" d="M0 0h430v430H0z" opacity="0"/><use xmlns:ns4="http://www.w3.org/1999/xlink" ns4:href="#h"/></g></mask><mask id="aS" mask-type="alpha"><g filter="url(#i)"><path fill="#fff" d="M0 0h430v430H0z" opacity="0"/><use xmlns:ns5="http://www.w3.org/1999/xlink" ns5:href="#j"/></g></mask><mask id="aR" mask-type="alpha"><g filter="url(#k)"><path fill="#fff" d="M0 0h430v430H0z" opacity="0"/><use xmlns:ns6="http://www.w3.org/1999/xlink" ns6:href="#l"/></g></mask><mask id="aQ" mask-type="alpha"><g filter="url(#m)"><path fill="#fff" d="M0 0h430v430H0z" opacity="0"/><use xmlns:ns7="http://www.w3.org/1999/xlink" ns7:href="#n"/></g></mask><mask id="aP" mask-type="alpha"><g filter="url(#o)"><path fill="#fff" d="M0 0h430v430H0z" opacity="0"/><use xmlns:ns8="http://www.w3.org/1999/xlink" ns8:href="#p"/></g></mask><mask id="aO" mask-type="alpha"><g filter="url(#q)"><path fill="#fff" d="M0 0h430v430H0z" opacity="0"/><use xmlns:ns9="http://www.w3.org/1999/xlink" ns9:href="#r"/></g></mask><mask id="aN" mask-type="alpha"><g filter="url(#s)"><path fill="#fff" d="M0 0h430v430H0z" opacity="0"/><use xmlns:ns10="http://www.w3.org/1999/xlink" ns10:href="#t"/></g></mask><mask id="aM" mask-type="alpha"><g filter="url(#u)"><path fill="#fff" d="M0 0h430v430H0z" opacity="0"/><use xmlns:ns11="http://www.w3.org/1999/xlink" ns11:href="#v"/></g></mask><mask id="aK" mask-type="alpha"><g filter="url(#w)"><path fill="#fff" d="M0 0h430v430H0z" opacity="0"/><use xmlns:ns12="http://www.w3.org/1999/xlink" ns12:href="#x"/></g></mask><mask id="aJ" mask-type="alpha"><g filter="url(#y)"><path fill="#fff" d="M0 0h430v430H0z" opacity="0"/><use xmlns:ns13="http://www.w3.org/1999/xlink" ns13:href="#z"/></g></mask><mask id="aI" mask-type="alpha"><g filter="url(#A)"><path fill="#fff" d="M0 0h430v430H0z" opacity="0"/><use xmlns:ns14="http://www.w3.org/1999/xlink" ns14:href="#B"/></g></mask><mask id="aH" mask-type="alpha"><g filter="url(#C)"><path fill="#fff" d="M0 0h430v430H0z" opacity="0"/><use xmlns:ns15="http://www.w3.org/1999/xlink" ns15:href="#D"/></g></mask><mask id="aF" mask-type="alpha"><g filter="url(#E)"><path fill="#fff" d="M0 0h430v430H0z" opacity="0"/><use xmlns:ns16="http://www.w3.org/1999/xlink" ns16:href="#F"/></g></mask><mask id="aE" mask-type="alpha"><g filter="url(#G)"><path fill="#fff" d="M0 0h430v430H0z" opacity="0"/><use xmlns:ns17="http://www.w3.org/1999/xlink" ns17:href="#H"/></g></mask><mask id="aD" mask-type="alpha"><g filter="url(#I)"><path fill="#fff" d="M0 0h430v430H0z" opacity="0"/><use xmlns:ns18="http://www.w3.org/1999/xlink" ns18:href="#J"/></g></mask><mask id="aC" mask-type="alpha"><use xmlns:ns19="http://www.w3.org/1999/xlink" ns19:href="#K"/></mask><mask id="aA" mask-type="alpha"><g filter="url(#L)"><path fill="#fff" d="M0 0h430v430H0z" opacity="0"/><use xmlns:ns20="http://www.w3.org/1999/xlink" ns20:href="#M"/></g></mask><mask id="az" mask-type="alpha"><g filter="url(#N)"><path fill="#fff" d="M0 0h430v430H0z" opacity="0"/><use xmlns:ns21="http://www.w3.org/1999/xlink" ns21:href="#O"/></g></mask><mask id="ay" mask-type="alpha"><g filter="url(#P)"><path fill="#fff" d="M0 0h430v430H0z" opacity="0"/><use xmlns:ns22="http://www.w3.org/1999/xlink" ns22:href="#Q"/></g></mask><mask id="ax" mask-type="alpha"><g filter="url(#R)"><path fill="#fff" d="M0 0h430v430H0z" opacity="0"/><use xmlns:ns23="http://www.w3.org/1999/xlink" ns23:href="#S"/></g></mask><mask id="au" mask-type="alpha"><g filter="url(#T)"><path fill="#fff" d="M0 0h430v430H0z" opacity="0"/><use xmlns:ns24="http://www.w3.org/1999/xlink" ns24:href="#U"/></g></mask><mask id="at" mask-type="alpha"><g filter="url(#V)"><path fill="#fff" d="M0 0h430v430H0z" opacity="0"/><use xmlns:ns25="http://www.w3.org/1999/xlink" ns25:href="#W"/></g></mask><mask id="as" mask-type="alpha"><g filter="url(#X)"><path fill="#fff" d="M0 0h430v430H0z" opacity="0"/><use xmlns:ns26="http://www.w3.org/1999/xlink" ns26:href="#Y"/></g></mask><mask id="ar" mask-type="alpha"><g filter="url(#Z)"><path fill="#fff" d="M0 0h430v430H0z" opacity="0"/><use xmlns:ns27="http://www.w3.org/1999/xlink" ns27:href="#aa"/></g></mask><mask id="ap" mask-type="alpha"><g filter="url(#ab)"><path fill="#fff" d="M0 0h430v430H0z" opacity="0"/><use xmlns:ns28="http://www.w3.org/1999/xlink" ns28:href="#ac"/></g></mask><mask id="ao" mask-type="alpha"><g filter="url(#ad)"><path fill="#fff" d="M0 0h430v430H0z" opacity="0"/><use xmlns:ns29="http://www.w3.org/1999/xlink" ns29:href="#ae"/></g></mask><mask id="an" mask-type="alpha"><g filter="url(#af)"><path fill="#fff" d="M0 0h430v430H0z" opacity="0"/><use xmlns:ns30="http://www.w3.org/1999/xlink" ns30:href="#ag"/></g></mask><mask id="al" mask-type="alpha"><use xmlns:ns31="http://www.w3.org/1999/xlink" ns31:href="#ah"/></mask><filter id="a" width="100%" height="100%" x="0%" y="0%" filterUnits="objectBoundingBox"><feComponentTransfer in="SourceGraphic"><feFuncA tableValues="1.0 0.0" type="table"/></feComponentTransfer></filter><filter id="c" width="100%" height="100%" x="0%" y="0%" filterUnits="objectBoundingBox"><feComponentTransfer in="SourceGraphic"><feFuncA tableValues="1.0 0.0" type="table"/></feComponentTransfer></filter><filter id="e" width="100%" height="100%" x="0%" y="0%" filterUnits="objectBoundingBox"><feComponentTransfer in="SourceGraphic"><feFuncA tableValues="1.0 0.0" type="table"/></feComponentTransfer></filter><filter id="g" width="100%" height="100%" x="0%" y="0%" filterUnits="objectBoundingBox"><feComponentTransfer in="SourceGraphic"><feFuncA tableValues="1.0 0.0" type="table"/></feComponentTransfer></filter><filter id="i" width="100%" height="100%" x="0%" y="0%" filterUnits="objectBoundingBox"><feComponentTransfer in="SourceGraphic"><feFuncA tableValues="1.0 0.0" type="table"/></feComponentTransfer></filter><filter id="k" width="100%" height="100%" x="0%" y="0%" filterUnits="objectBoundingBox"><feComponentTransfer in="SourceGraphic"><feFuncA tableValues="1.0 0.0" type="table"/></feComponentTransfer></filter><filter id="m" width="100%" height="100%" x="0%" y="0%" filterUnits="objectBoundingBox"><feComponentTransfer in="SourceGraphic"><feFuncA tableValues="1.0 0.0" type="table"/></feComponentTransfer></filter><filter id="o" width="100%" height="100%" x="0%" y="0%" filterUnits="objectBoundingBox"><feComponentTransfer in="SourceGraphic"><feFuncA tableValues="1.0 0.0" type="table"/></feComponentTransfer></filter><filter id="q" width="100%" height="100%" x="0%" y="0%" filterUnits="objectBoundingBox"><feComponentTransfer in="SourceGraphic"><feFuncA tableValues="1.0 0.0" type="table"/></feComponentTransfer></filter><filter id="s" width="100%" height="100%" x="0%" y="0%" filterUnits="objectBoundingBox"><feComponentTransfer in="SourceGraphic"><feFuncA tableValues="1.0 0.0" type="table"/></feComponentTransfer></filter><filter id="u" width="100%" height="100%" x="0%" y="0%" filterUnits="objectBoundingBox"><feComponentTransfer in="SourceGraphic"><feFuncA tableValues="1.0 0.0" type="table"/></feComponentTransfer></filter><filter id="w" width="100%" height="100%" x="0%" y="0%" filterUnits="objectBoundingBox"><feComponentTransfer in="SourceGraphic"><feFuncA tableValues="1.0 0.0" type="table"/></feComponentTransfer></filter><filter id="y" width="100%" height="100%" x="0%" y="0%" filterUnits="objectBoundingBox"><feComponentTransfer in="SourceGraphic"><feFuncA tableValues="1.0 0.0" type="table"/></feComponentTransfer></filter><filter id="A" width="100%" height="100%" x="0%" y="0%" filterUnits="objectBoundingBox"><feComponentTransfer in="SourceGraphic"><feFuncA tableValues="1.0 0.0" type="table"/></feComponentTransfer></filter><filter id="C" width="100%" height="100%" x="0%" y="0%" filterUnits="objectBoundingBox"><feComponentTransfer in="SourceGraphic"><feFuncA tableValues="1.0 0.0" type="table"/></feComponentTransfer></filter><filter id="E" width="100%" height="100%" x="0%" y="0%" filterUnits="objectBoundingBox"><feComponentTransfer in="SourceGraphic"><feFuncA tableValues="1.0 0.0" type="table"/></feComponentTransfer></filter><filter id="G" width="100%" height="100%" x="0%" y="0%" filterUnits="objectBoundingBox"><feComponentTransfer in="SourceGraphic"><feFuncA tableValues="1.0 0.0" type="table"/></feComponentTransfer></filter><filter id="I" width="100%" height="100%" x="0%" y="0%" filterUnits="objectBoundingBox"><feComponentTransfer in="SourceGraphic"><feFuncA tableValues="1.0 0.0" type="table"/></feComponentTransfer></filter><filter id="L" width="100%" height="100%" x="0%" y="0%" filterUnits="objectBoundingBox"><feComponentTransfer in="SourceGraphic"><feFuncA tableValues="1.0 0.0" type="table"/></feComponentTransfer></filter><filter id="N" width="100%" height="100%" x="0%" y="0%" filterUnits="objectBoundingBox"><feComponentTransfer in="SourceGraphic"><feFuncA tableValues="1.0 0.0" type="table"/></feComponentTransfer></filter><filter id="P" width="100%" height="100%" x="0%" y="0%" filterUnits="objectBoundingBox"><feComponentTransfer in="SourceGraphic"><feFuncA tableValues="1.0 0.0" type="table"/></feComponentTransfer></filter><filter id="R" width="100%" height="100%" x="0%" y="0%" filterUnits="objectBoundingBox"><feComponentTransfer in="SourceGraphic"><feFuncA tableValues="1.0 0.0" type="table"/></feComponentTransfer></filter><filter id="T" width="100%" height="100%" x="0%" y="0%" filterUnits="objectBoundingBox"><feComponentTransfer in="SourceGraphic"><feFuncA tableValues="1.0 0.0" type="table"/></feComponentTransfer></filter><filter id="V" width="100%" height="100%" x="0%" y="0%" filterUnits="objectBoundingBox"><feComponentTransfer in="SourceGraphic"><feFuncA tableValues="1.0 0.0" type="table"/></feComponentTransfer></filter><filter id="X" width="100%" height="100%" x="0%" y="0%" filterUnits="objectBoundingBox"><feComponentTransfer in="SourceGraphic"><feFuncA tableValues="1.0 0.0" type="table"/></feComponentTransfer></filter><filter id="Z" width="100%" height="100%" x="0%" y="0%" filterUnits="objectBoundingBox"><feComponentTransfer in="SourceGraphic"><feFuncA tableValues="1.0 0.0" type="table"/></feComponentTransfer></filter><filter id="ab" width="100%" height="100%" x="0%" y="0%" filterUnits="objectBoundingBox"><feComponentTransfer in="SourceGraphic"><feFuncA tableValues="1.0 0.0" type="table"/></feComponentTransfer></filter><filter id="ad" width="100%" height="100%" x="0%" y="0%" filterUnits="objectBoundingBox"><feComponentTransfer in="SourceGraphic"><feFuncA tableValues="1.0 0.0" type="table"/></feComponentTransfer></filter><filter id="af" width="100%" height="100%" x="0%" y="0%" filterUnits="objectBoundingBox"><feComponentTransfer in="SourceGraphic"><feFuncA tableValues="1.0 0.0" type="table"/></feComponentTransfer></filter><clipPath id="ai"><path d="M0 0h430v430H0z"/></clipPath><clipPath id="aT"><path d="M0 0h430v430H0z"/></clipPath><clipPath id="aL"><path d="M0 0h430v430H0z"/></clipPath><clipPath id="aG"><path d="M0 0h430v430H0z"/></clipPath><clipPath id="av"><path d="M0 0h430v430H0z"/></clipPath><clipPath id="aB"><path d="M0 0h430v430H0z"/></clipPath><clipPath id="aw"><path d="M0 0h430v430H0z"/></clipPath><clipPath id="aj"><path d="M0 0h430v430H0z"/></clipPath><clipPath id="aq"><path d="M0 0h430v430H0z"/></clipPath><clipPath id="ak"><path d="M0 0h430v430H0z"/></clipPath></defs><g clip-path="url(#ai)"><g clip-path="url(#aj)" style="display:none"><g style="display:none"><path class="primary"/><path class="primary" style="mix-blend-mode:multiply"/></g><g clip-path="url(#ak)" mask="url(#al)" style="display:none"><g mask="url(#an)" style="display:none"><path class="secondary"/></g><g mask="url(#ao)" style="mix-blend-mode:multiply;display:none"><path class="secondary"/></g><path class="primary" style="display:none"/><g mask="url(#ap)" style="mix-blend-mode:multiply;display:none"><path class="primary"/></g></g><g clip-path="url(#aq)" mask="url(#ar)" style="display:none"><g mask="url(#as)" style="display:none"><path class="primary"/></g><g mask="url(#at)" style="mix-blend-mode:multiply;display:none"><path class="primary"/></g><path class="secondary" style="display:none"/><g mask="url(#au)" style="mix-blend-mode:multiply;display:none"><path class="secondary"/></g></g></g><g clip-path="url(#av)" style="display:none"><g style="display:none"><path class="primary"/><path class="primary" style="mix-blend-mode:multiply"/></g><g clip-path="url(#aw)" mask="url(#ax)" style="display:none"><g mask="url(#ay)" style="display:none"><path class="primary"/></g><g mask="url(#az)" style="mix-blend-mode:multiply;display:none"><path class="primary"/></g><path class="secondary" style="display:none"/><g mask="url(#aA)" style="mix-blend-mode:multiply;display:none"><path class="secondary"/></g></g><g clip-path="url(#aB)" mask="url(#aC)" style="display:none"><g mask="url(#aD)" style="display:none"><path class="secondary"/></g><g mask="url(#aE)" style="mix-blend-mode:multiply;display:none"><path class="secondary"/></g><path class="primary" style="display:none"/><g mask="url(#aF)" style="mix-blend-mode:multiply;display:none"><path class="primary"/></g></g></g><g clip-path="url(#aG)" style="display:none"><g mask="url(#aH)" style="display:none"><path class="primary"/></g><g mask="url(#aI)" style="mix-blend-mode:multiply;display:none"><path class="primary"/></g><path class="secondary" style="display:none"/><g mask="url(#aJ)" style="mix-blend-mode:multiply;display:none"><path class="secondary"/></g><path class="secondary" style="display:none"/><g mask="url(#aK)" style="mix-blend-mode:multiply;display:none"><path class="secondary"/></g><path fill="none" class="secondary" style="display:none"/></g><g clip-path="url(#aL)" style="display:block"><g mask="url(#aM)" style="display:block"><path fill="#2F80E8" d="M167.883 93.607c-2.622-8.066-5.806-15.267-9.531-21.459-25.747 3.086-49.437 10.892-69.495 22.22-20.229 24.718-37.722 59.3-48.459 99.369-5.795 21.626-9.085 42.852-10.076 62.765-.999 20.093.343 38.849 3.817 55.333 20.291 19.248 49.017 34.553 82.785 43.744q3.04.827 6.131 1.587c7.545-12.845 14.64-27.095 21.068-42.482 22.247 9.062 47.663 14.199 74.653 14.199 24.398 0 47.508-4.198 68.156-11.698 6.147 14.432 12.879 27.835 20.013 39.981q3.808-.937 7.534-1.974c33.161-9.23 61.373-24.376 81.382-43.357 6.918-32.821 5.382-74.652-6.259-118.098-10.737-40.069-28.23-74.651-48.459-99.369-20.058-11.328-43.748-19.134-69.495-22.22-3.466 5.762-6.464 12.398-8.977 19.791-13.94-3.053-28.666-4.689-43.895-4.689-17.801 0-34.919 2.235-50.893 6.357" class="primary"/></g><g mask="url(#aN)" opacity=".5" style="mix-blend-mode:multiply;display:block"><path fill="#2F80E8" d="M167.883 93.607c-2.622-8.066-5.806-15.267-9.531-21.459-25.747 3.086-49.437 10.892-69.495 22.22-20.229 24.718-37.722 59.3-48.459 99.369-5.795 21.626-9.085 42.852-10.076 62.765-.999 20.093.343 38.849 3.817 55.333 20.291 19.248 49.017 34.553 82.785 43.744q3.04.827 6.131 1.587c7.545-12.845 14.64-27.095 21.068-42.482 22.247 9.062 47.663 14.199 74.653 14.199 24.398 0 47.508-4.198 68.156-11.698 6.147 14.432 12.879 27.835 20.013 39.981q3.808-.937 7.534-1.974c33.161-9.23 61.373-24.376 81.382-43.357 6.918-32.821 5.382-74.652-6.259-118.098-10.737-40.069-28.23-74.651-48.459-99.369-20.058-11.328-43.748-19.134-69.495-22.22-3.466 5.762-6.464 12.398-8.977 19.791-13.94-3.053-28.666-4.689-43.895-4.689-17.801 0-34.919 2.235-50.893 6.357" class="primary" opacity="1"/></g><g style="display:none"><path class="primary"/><path class="primary"/></g><path fill="#2F80E8" d="M215 214.657" class="primary" style="display:block"/><g mask="url(#aO)" opacity=".5" style="mix-blend-mode:multiply;display:block"><path fill="#2F80E8" d="M215 214.657" class="primary"/></g><g mask="url(#aP)" style="display:block"><path fill="#2F80E8" d="M389.358 193.737c11.611 43.446 13.142 85.277 6.242 118.098-17.311 16.464-40.778 30.043-68.282 39.378 11.567-9.213 72.91-66.714 62.04-157.476" class="primary"/></g><path fill="#2F80E8" d="M-174.602-20.92C-185.5 69.842-124 127.343-112.403 136.556c-27.575-9.335-51.102-22.914-68.458-39.378-6.918-32.821-5.382-74.652 6.259-118.098" class="primary" style="display:block" transform="translate(215 214.657)"/><g mask="url(#aQ)" opacity=".5" style="mix-blend-mode:multiply;display:block"><path fill="#2F80E8" d="M40.398 193.737C29.5 284.499 91 342 102.597 351.213c-27.575-9.335-51.102-22.914-68.458-39.378-6.918-32.821-5.382-74.652 6.259-118.098" class="primary" opacity="1"/></g><path fill="#EBE6EE" d="M285 260c13.807 0 25-13.431 25-30s-11.193-30-25-30-25 13.431-25 30 11.193 30 25 30" class="secondary" style="display:block"/><g mask="url(#aR)" opacity=".5" style="mix-blend-mode:multiply;display:block"><path fill="#EBE6EE" d="M285 260c13.807 0 25-13.431 25-30s-11.193-30-25-30-25 13.431-25 30 11.193 30 25 30" class="secondary"/></g><path fill="#EBE6EE" d="M0 30c13.807 0 25-13.431 25-30S13.807-30 0-30-25-16.569-25 0s11.193 30 25 30" class="secondary" style="display:block" transform="translate(145 230)"/><g mask="url(#aS)" opacity=".5" style="mix-blend-mode:multiply;display:block"><path fill="#EBE6EE" d="M145 260c13.807 0 25-13.431 25-30s-11.193-30-25-30-25 13.431-25 30 11.193 30 25 30" class="secondary" opacity="1"/></g></g><g clip-path="url(#aT)" style="display:none"><g mask="url(#aU)" style="display:none"><path class="primary"/></g><g mask="url(#aV)" style="mix-blend-mode:multiply;display:none"><path class="primary"/></g><path class="secondary" style="display:none"/><g mask="url(#aW)" style="mix-blend-mode:multiply;display:none"><path class="secondary"/></g><path class="secondary" style="display:none"/><g mask="url(#aX)" style="mix-blend-mode:multiply;display:none"><path class="secondary"/></g><path fill="none" class="secondary" style="display:none"/></g></g></svg>