<svg xmlns="http://www.w3.org/2000/svg" width="430" height="430" style="width:100%;height:100%;transform:translate3d(0,0,0);content-visibility:visible" viewBox="0 0 430 430"><defs><clipPath id="g"><path d="M0 0h430v430H0z"/></clipPath><clipPath id="k"><path d="M0 0h430v430H0z"/></clipPath><clipPath id="h"><path d="M0 0h430v430H0z"/></clipPath><filter id="a" width="100%" height="100%" x="0%" y="0%" filterUnits="objectBoundingBox"><feComponentTransfer in="SourceGraphic"><feFuncA tableValues="1.0 0.0" type="table"/></feComponentTransfer></filter><filter id="c" width="100%" height="100%" x="0%" y="0%" filterUnits="objectBoundingBox"><feComponentTransfer in="SourceGraphic"><feFuncA tableValues="1.0 0.0" type="table"/></feComponentTransfer></filter><filter id="e" width="100%" height="100%" x="0%" y="0%" filterUnits="objectBoundingBox"><feComponentTransfer in="SourceGraphic"><feFuncA tableValues="1.0 0.0" type="table"/></feComponentTransfer></filter><path id="b" class="quaternary" style="display:none"/><path id="d" fill="#4BB3FD" d="m46.344-98.37 8.968.498c43.48 0 86.957 53.17 86.957 96.65V30.29c0 8.459-12.543 16.071-21.002 16.071h-19.43C63.35 49.35 49.07 71.432 16.898 71.432h-33.796c-32.172 0-31.679-13.826-70.166-16.815h-19.43c-8.459 0-15.321-6.861-15.321-15.32V7.785c0-41.884 11.872-65.916 76.381-84.578 1.548-.448-.325.094.278-.141 14.474-5.634 54.815 1.616 78.073-25.123" class="quaternary" style="display:block" transform="matrix(.88 0 0 1 220 324.631)"/><path id="f" fill="#4BB3FD" d="m46.344-98.37 8.968.498c43.48 0 86.957 53.17 86.957 96.65V52.79c0 8.459-12.543 16.071-21.002 16.071h-19.43C63.35 71.85 49.07 93.932 16.898 93.932h-33.796c-32.172 0-31.679-13.826-70.166-16.815l-19.43-22.5c-8.459 0-15.321-6.861-15.321-15.32V7.785c0-41.884 11.872-65.916 76.381-84.578 1.548-.448-.325.094.278-.141 14.474-5.634 54.815 1.616 78.073-25.123" class="quaternary" style="display:block" transform="matrix(.88 0 0 1 220 324.631)"/><mask id="l" mask-type="alpha"><g filter="url(#a)"><path fill="#fff" d="M0 0h430v430H0z" opacity="0"/><use xmlns:ns1="http://www.w3.org/1999/xlink" ns1:href="#b"/></g></mask><mask id="j" mask-type="alpha"><g filter="url(#c)"><path fill="#fff" d="M0 0h430v430H0z" opacity="0"/><use xmlns:ns2="http://www.w3.org/1999/xlink" ns2:href="#d"/></g></mask><mask id="i" mask-type="alpha"><g filter="url(#e)"><path fill="#fff" d="M0 0h430v430H0z" opacity="0"/><use xmlns:ns3="http://www.w3.org/1999/xlink" ns3:href="#f"/></g></mask></defs><g clip-path="url(#g)"><g clip-path="url(#h)" style="display:block"><path fill="#E8392F" d="M33.88 26.69h7.62c45.84 0 83 37.16 83 83v27.76c0 7.62-5.71 14.03-13.28 14.9l-29.04 3.36a85.3 85.3 0 0 0-23.07 6.03c-18.91 7.91-39 11.88-59.11 11.92h-.3c-20.1 0-40.2-3.93-59.12-11.8l-.2-.08c-7.69-3.2-15.79-5.3-24.07-6.26l-27.53-3.17c-7.57-.87-13.28-7.28-13.28-14.9v-27.76c0-45.84 37.16-83 83-83h7.63" class="tertiary" style="display:block" transform="translate(215 215)"/><g mask="url(#i)" opacity=".5" style="mix-blend-mode:multiply;display:block"><path fill="#E8392F" d="M248.88 241.69h7.62c45.84 0 83 37.16 83 83v27.76c0 7.62-5.71 14.03-13.28 14.9l-29.04 3.36a85.3 85.3 0 0 0-23.07 6.03c-18.91 7.91-39 11.88-59.11 11.92h-.3c-20.1 0-40.2-3.93-59.12-11.8l-.2-.08c-7.69-3.2-15.79-5.3-24.07-6.26l-27.53-3.17c-7.57-.87-13.28-7.28-13.28-14.9v-27.76c0-45.84 37.16-83 83-83h7.63" class="tertiary" opacity="1"/></g><path fill="none" stroke="#000" stroke-linecap="round" stroke-linejoin="round" stroke-width="7" d="M33.88 26.69h7.62c45.84 0 83 37.16 83 83v27.76c0 7.62-5.71 14.03-13.28 14.9l-29.04 3.36a85.3 85.3 0 0 0-23.07 6.03c-18.91 7.91-39 11.88-59.11 11.92h-.3c-20.1 0-40.2-3.93-59.12-11.8l-.2-.08c-7.69-3.2-15.79-5.3-24.07-6.26l-27.53-3.17c-7.57-.87-13.28-7.28-13.28-14.9v-27.76c0-45.84 37.16-83 83-83h7.63" class="primary" style="display:block" transform="translate(215 215)"/><path fill="#E2C0AC" d="M33.87 7.845v18.94c0 18.63-15.25 33.87-33.88 33.87s-33.87-15.24-33.87-33.87V7.855" class="quaternary" style="display:block" transform="translate(215 215)"/><g mask="url(#j)" opacity=".5" style="mix-blend-mode:multiply;display:block"><path fill="#E2C0AC" d="M248.87 222.845v18.94c0 18.63-15.25 33.87-33.88 33.87s-33.87-15.24-33.87-33.87v-18.93" class="quaternary" opacity="1"/></g><path fill="none" stroke="#000" stroke-linecap="round" stroke-linejoin="round" stroke-width="7" d="M33.87 7.845v18.94c0 18.63-15.25 33.87-33.88 33.87s-33.87-15.24-33.87-33.87V7.855" class="primary" style="display:block" transform="translate(215 215)"/><g style="display:block"><path fill="#E2C0AC" d="m234 63 42.898 24.868-2.324 87.595C273.458 207.558 247.115 233 215 233s-58.458-25.442-59.574-57.537l-1.07-40.125" class="quaternary"/><path fill="none" stroke="#000" stroke-linecap="round" stroke-linejoin="round" stroke-width="7" d="m234 63 42.898 24.868-2.324 87.595C273.458 207.558 247.115 233 215 233q0 0 0 0c-32.115 0-58.458-25.442-59.574-57.537l-1.07-40.125" class="primary"/></g><g style="display:block"><path fill="#393346" d="M154.05 134.108c39.08-1.63 70.28-25.94 84.83-60.1 32.787 23.36 36.956 63.531 36.956 63.531l2.56-30.885c1.939-23.396-12.659-44.991-35.093-51.91l-3.948-1.217a83.34 83.34 0 0 0-49.348.069l-3.287 1.024c-22.439 6.989-36.982 28.664-34.942 52.078l2.378 27.297" class="secondary"/><path fill="#393346" d="M154.05 134.108c39.08-1.63 70.28-25.94 84.83-60.1 32.787 23.36 36.956 63.531 36.956 63.531l2.56-30.885c1.939-23.396-12.659-44.991-35.093-51.91l-3.948-1.217a83.34 83.34 0 0 0-49.348.069l-3.287 1.024c-22.439 6.989-36.982 28.664-34.942 52.078l2.378 27.297" class="secondary"/><path fill="none" stroke="#000" stroke-linecap="round" stroke-linejoin="round" stroke-width="7" d="M154.05 134.108c39.08-1.63 70.28-25.94 84.83-60.1 32.787 23.36 36.956 63.531 36.956 63.531l2.56-30.885c1.939-23.396-12.659-44.991-35.093-51.91l-3.948-1.217a83.34 83.34 0 0 0-49.348.069l-3.287 1.024c-22.439 6.989-36.982 28.664-34.942 52.078l2.378 27.297" class="primary"/></g><path fill="none" stroke="#000" stroke-linecap="round" stroke-linejoin="round" stroke-width="7" d="M214.998 187.192c-1.179.77-6.925 5.357-15 4.737-11.025-.846-16.181-8.752-16.5-9.262m31.504 4.525c1.179.77 6.925 5.357 15 4.737 11.025-.846 16.181-8.752 16.5-9.262" class="primary" style="display:block"/><path fill="none" stroke="#000" stroke-linecap="round" stroke-linejoin="round" stroke-width="7" d="m-25.02-73.535 48.54 143.57" class="primary" style="display:block" transform="translate(117.83 299.095)"/><g fill="#C69715" style="display:block"><path d="M92.768 225.47c-8.18 2.78-17.93-4.15-21.79-15.49-2.841-8.347-.806-28.67.466-38.819.311-2.483 3.34-3.514 5.101-1.736 7.199 7.268 21.212 22.136 24.053 30.475 3.85 11.34.35 22.78-7.83 25.57" class="quinary"/><path d="M-13.256-28.292c-.28 10.8-.21 26.67 2.22 33.79 3.86 11.34 13.61 18.27 21.79 15.49 2.02-.69 3.75-1.9 5.16-3.52-.09.32-.18.64-.28.95-.1.29-.19.57-.3.85-.09.24-.19.48-.28.71-.15.33-.29.65-.45.96-.12.25-.24.49-.38.72-.11.2-.23.4-.35.6-.08.12-.15.24-.23.36-.3.46-.63.9-.97 1.31-.14.16-.28.32-.43.48-.22.25-.45.48-.7.71-.17.16-.34.31-.52.46-.06.06-.13.11-.19.16-.18.14-.37.29-.57.42-.21.15-.42.3-.65.44q-.015.015-.06.03a8 8 0 0 1-.7.39c-.25.13-.5.25-.76.36q-.375.165-.78.3c-8.18 2.78-17.93-4.15-21.79-15.49a9 9 0 0 1-.19-.6c-.17-.58-.32-1.22-.46-1.89-.1-.52-.19-1.06-.27-1.63-.14-1.03-.25-2.12-.34-3.28-.15-2.17-.2-4.55-.17-7.02 0-.23 0-.45.01-.67.02-1.12.05-2.25.1-3.39.02-.66.05-1.31.09-1.97.09-1.63.19-3.26.31-4.87.04-.45.07-.89.11-1.34.01-.09.02-.17.02-.26.03-.28.05-.56.07-.84.01-.08.02-.15.02-.22l.06-.66c.09-.91.17-1.81.26-2.69.06-.57.11-1.14.17-1.69q.21-1.86.39-3.51l.12-.94c0-.04.01-.07.01-.11.06-.47.11-.92.17-1.35l.03-.19z" class="quinary" opacity=".5" style="mix-blend-mode:multiply" transform="translate(85.459 197.792)"/></g><path fill="none" stroke="#000" stroke-linecap="round" stroke-linejoin="round" stroke-width="7" d="M-14.875 14.344c-3.857-11.336 1.282-44.79 1.282-44.79S10.885-7.069 14.742 4.267s.354 22.782-7.824 25.565-17.936-4.152-21.793-15.488" class="primary" style="display:block" transform="translate(85.889 195.733)"/><g fill="#E8E12F" style="display:block"><path d="M306.999 108.76c-1.44 5.21-5.81 8.71-10.39 8.71-.79 0-1.58-.1-2.37-.32l-15.33-4.22-.19-.05-1.67-.46-9.121-2.52-.26-.07-41.329-11.38-.12-.03-64.64-17.8c-.98-.27-1.88-.7-2.69-1.25-.04-.03-.08-.05-.12-.08-3.53-2.5-5.22-7.46-3.86-12.4 2.22-8.05 4.55-12.98 9.38-16.21 4.83-3.22 13.419-7.24 25.649-8.5q3.78-.24 7.531-.24c16.18 0 31.905 3.319 46.44 9.68 14.67 6.42 28.13 15.92 39.62 28.2z" class="senary"/><path d="m52.67 30.4-33.44-9.21-.12-.03-64.64-17.8c-.98-.27-1.881-.7-2.691-1.25-.04-.03-.079-.05-.119-.08-3.53-2.5-5.22-7.46-3.86-12.4 2.22-8.05 4.55-12.98 9.38-16.21 2.49-1.66 5.65-2.87 9.79-3.82-3.51 2.88-5.78 7.18-8.16 13.55-1.79 4.8-.55 9.89 2.75 12.69.04.04.08.06.11.09a9.2 9.2 0 0 0 2.569 1.49L27.06 20.85l.12.04z" class="senary" opacity=".5" style="mix-blend-mode:multiply" transform="translate(207.11 77.275)"/></g><path fill="none" stroke="#000" stroke-linecap="round" stroke-linejoin="round" stroke-width="7" d="M307 108.76c-1.44 5.21-5.81 8.71-10.39 8.71-.79 0-1.58-.1-2.37-.32l-15.33-4.22-.19-.05-1.67-.46-9.12-2.52-.26-.07-41.33-11.38-.12-.03-64.64-17.8c-.98-.27-1.88-.7-2.69-1.25-.04-.03-.08-.05-.12-.08-3.53-2.5-5.22-7.46-3.86-12.4 2.22-8.05 4.55-12.98 9.38-16.21 4.83-3.22 13.42-7.24 25.65-8.5q3.78-.24 7.53-.24c16.18 0 31.9 3.32 46.44 9.68 14.67 6.42 28.13 15.92 39.62 28.2z" class="primary" style="display:block"/><path fill="none" stroke="#000" stroke-linecap="round" stroke-linejoin="round" stroke-width="7" d="M-2.278 4.961 3.53-8.342" class="primary" style="display:block" transform="translate(245.475 45.879)"/></g><g clip-path="url(#k)" style="display:none"><g style="display:none"><path class="tertiary"/><path class="quaternary"/></g><g mask="url(#l)" style="mix-blend-mode:multiply;display:none"><path class="tertiary"/><path class="quaternary"/></g><path fill="none" class="primary" style="display:none"/><g fill="none" style="display:none"><path class="primary"/><path class="primary"/></g><g style="display:none"><path class="quinary"/><path class="quinary" style="mix-blend-mode:multiply"/></g><path fill="none" class="primary" style="display:none"/><g style="display:none"><path class="quaternary"/><path fill="none" class="primary"/></g><g fill="none" style="display:none"><path class="primary"/><path class="primary"/></g><g style="display:none"><path class="secondary"/><path fill="none" class="primary"/></g><g style="display:none"><path class="senary"/><path class="senary" style="mix-blend-mode:multiply"/></g><path fill="none" class="primary" style="display:none"/><path fill="none" class="primary" style="display:none"/></g></g></svg>